<svg width="106" height="36" viewBox="0 0 106 36" fill="none" xmlns="http://www.w3.org/2000/svg">
<path d="M31.4844 18.1649V31.1098H29.309V25.6506L29.3878 23.4962L28.7651 24.4821L26.3616 27.4217L23.9581 24.4821L23.3351 23.4962L23.4317 25.6506V31.1098H21.2563V18.1649H21.4317L26.3791 24.2355L31.2915 18.1649H31.4844Z" fill="black"/>
<path d="M36.0095 31.3654C35.4889 31.3654 35.0503 31.2437 34.6937 31.0002C34.3368 30.7568 34.0693 30.4281 33.8911 30.0143C33.7127 29.6004 33.6235 29.1379 33.6235 28.6267C33.6235 28.1823 33.7653 27.7395 34.049 27.2985C34.3325 26.8572 34.8368 26.4813 35.5619 26.1708C36.2871 25.8605 37.2667 25.7054 38.5007 25.7054V25.2855C38.5007 24.7864 38.3852 24.3999 38.1543 24.1259C37.9231 23.8521 37.5181 23.7153 36.9393 23.7153C36.4831 23.7153 36.0372 23.7959 35.6015 23.9573C35.1657 24.1184 34.8456 24.3177 34.641 24.5551L33.9393 22.8024C34.3369 22.5224 34.831 22.2851 35.4216 22.0903C36.0123 21.8956 36.641 21.7982 37.3077 21.7982C38.1439 21.7982 38.8062 21.9321 39.2947 22.1999C39.7829 22.4676 40.1264 22.845 40.3253 23.3319C40.5241 23.8187 40.6235 24.4212 40.6235 25.1394V31.1098H38.7463L38.5884 29.8135C38.2784 30.3368 37.9114 30.7263 37.4876 30.982C37.0636 31.2376 36.5709 31.3654 36.0095 31.3654ZM36.9393 29.6126C37.2083 29.6126 37.4919 29.5 37.79 29.2747C38.0884 29.0496 38.3253 28.7667 38.5007 28.4258V27.1295C38.4188 27.1174 38.2785 27.1113 38.0796 27.1113C37.4889 27.1113 36.9611 27.2132 36.4962 27.417C36.0314 27.6208 35.7989 27.951 35.7989 28.4076C35.7989 28.8396 35.891 29.1484 36.0752 29.3341C36.2593 29.5198 36.5474 29.6126 36.9393 29.6126Z" fill="black"/>
<path d="M44.1839 32.68C44.7277 33.0329 45.3358 33.2094 46.0085 33.2094C46.7628 33.2094 47.3255 33.0055 47.6968 32.5976C48.0684 32.19 48.2541 31.548 48.2541 30.6716V29.2474C48.1078 29.8074 47.8534 30.276 47.4908 30.6533C47.1282 31.0306 46.6224 31.2193 45.9734 31.2193C45.2833 31.2193 44.6736 31.058 44.1443 30.7353C43.615 30.4129 43.1969 29.9047 42.8898 29.2109C42.5829 28.5171 42.4295 27.6407 42.4295 26.5818C42.4295 25.5044 42.5815 24.6082 42.8856 23.8932C43.1897 23.1782 43.6049 22.6502 44.1313 22.3094C44.6576 21.9686 45.2541 21.7982 45.9208 21.7982C46.3769 21.7982 46.7701 21.8834 47.1003 22.0538C47.4308 22.2242 47.6911 22.4449 47.8812 22.7157C48.0713 22.9864 48.1956 23.277 48.2541 23.5875L48.4997 22.0173H50.219V30.6716C50.219 31.6088 50.067 32.4167 49.7629 33.0952C49.4588 33.7738 49.0085 34.2942 48.412 34.6565C47.8155 35.0185 47.0845 35.1996 46.219 35.1996C45.5815 35.1996 45.0039 35.1189 44.4863 34.9576C43.9689 34.7962 43.5406 34.6091 43.2014 34.3962L44.1839 32.68ZM46.412 29.43C46.9266 29.43 47.3271 29.179 47.6136 28.6768C47.9002 28.1746 48.0436 27.4641 48.0436 26.5453C48.0436 25.6445 47.9134 24.9355 47.6531 24.418C47.3928 23.9008 47.0025 23.6422 46.4822 23.6422C46.1604 23.6422 45.865 23.7396 45.596 23.9344C45.327 24.1291 45.1091 24.444 44.9424 24.8791C44.7759 25.3142 44.6927 25.8757 44.6927 26.5635C44.6927 27.5129 44.8491 28.228 45.1619 28.7087C45.4747 29.1896 45.8914 29.43 46.412 29.43Z" fill="black"/>
<path d="M52.691 18.1101H55.1472V20.5384H52.691V18.1101ZM52.7788 22.0173H55.0595V31.1098H52.7788V22.0173Z" fill="black"/>
<path d="M61.1125 31.3289C60.2176 31.3289 59.472 31.1174 58.8755 30.6945C58.279 30.2713 57.839 29.7038 57.5555 28.9918C57.2718 28.2797 57.13 27.4824 57.13 26.6C57.13 25.7358 57.2879 24.9386 57.6037 24.2082C57.9195 23.4779 58.3873 22.8937 59.0072 22.4555C59.6271 22.0173 60.3698 21.7982 61.2353 21.7982C61.7733 21.7982 62.2427 21.8575 62.6433 21.9761C63.0437 22.0947 63.4282 22.3093 63.7967 22.6198L63.0774 24.5551C62.9077 24.2933 62.6577 24.0848 62.3275 23.9297C61.997 23.7746 61.6739 23.697 61.3581 23.697C60.0832 23.697 59.4458 24.6586 59.4458 26.5818C59.4458 27.5859 59.6022 28.3177 59.915 28.7774C60.2278 29.2368 60.7089 29.4665 61.3581 29.4665C61.7498 29.4665 62.108 29.3904 62.4328 29.2381C62.7573 29.0861 63.0131 28.9005 63.2002 28.6814L63.8669 30.3064C63.7382 30.4525 63.5438 30.6031 63.2835 30.7582C63.0232 30.9133 62.7059 31.0472 62.3316 31.1599C61.9574 31.2725 61.551 31.3289 61.1125 31.3289Z" fill="black"/>
<path d="M81.8481 18.3839L77.7955 31.137H77.5148L74.6465 23.8338L71.8305 31.1187H71.5323L67.4445 18.3839H69.8656L71.9974 25.7691L74.5498 18.3839H74.8481L77.436 25.7419L79.4446 18.3839H81.8481Z" fill="black"/>
<path d="M85.7436 31.2923C84.8898 31.2923 84.1616 31.1037 83.5592 30.7263C82.9569 30.349 82.4979 29.8058 82.1821 29.0967C81.8663 28.3877 81.7084 27.5372 81.7084 26.5453C81.7084 25.5531 81.8707 24.7011 82.1952 23.9891C82.5197 23.277 82.9905 22.7338 83.6077 22.3595C84.2246 21.9853 84.9599 21.7982 85.8137 21.7982C86.6616 21.7982 87.3824 21.9914 87.9761 22.3778C88.5696 22.7642 89.0184 23.3135 89.3225 24.0257C89.6266 24.7376 89.7787 25.5775 89.7787 26.5453C89.7787 27.5068 89.6208 28.3452 89.305 29.0602C88.9892 29.7753 88.5287 30.3261 87.9235 30.7127C87.318 31.0991 86.5914 31.2923 85.7436 31.2923ZM85.7786 29.4665C86.3224 29.4665 86.7361 29.22 87.0198 28.7269C87.3035 28.2341 87.4453 27.5068 87.4453 26.5453C87.4453 25.5775 87.3035 24.8456 87.0198 24.3496C86.7361 23.8537 86.3224 23.6057 85.7786 23.6057C85.2055 23.6057 84.7728 23.84 84.4804 24.3085C84.188 24.7772 84.0418 25.5228 84.0418 26.5453C84.0418 27.5677 84.188 28.3102 84.4804 28.7727C84.7728 29.2353 85.2055 29.4665 85.7786 29.4665Z" fill="black"/>
<path d="M91.7281 22.0173H93.7106L93.8159 23.624C94.003 23.1553 94.2983 22.752 94.7017 22.4143C95.1053 22.0766 95.6756 21.9077 96.4124 21.9077C96.7048 21.9077 96.9738 21.9564 97.2194 22.0538L96.7282 24.4456C96.6287 24.342 96.5102 24.2674 96.3728 24.2219C96.2355 24.1763 96.0674 24.1535 95.8685 24.1535C95.4592 24.1535 95.1068 24.2432 94.8114 24.4227C94.516 24.6022 94.2938 24.8106 94.1447 25.0481C93.9957 25.2854 93.9211 25.4801 93.9211 25.6324V31.1098H91.7281V22.0173Z" fill="black"/>
<path d="M101.271 31.3654C100.569 31.3654 99.9567 31.1675 99.4331 30.7718C98.9097 30.3764 98.5062 29.818 98.2225 29.0967C97.9391 28.3755 97.7974 27.5372 97.7974 26.5818C97.7974 25.0603 98.0941 23.8826 98.6876 23.0487C99.2811 22.215 100.154 21.7982 101.306 21.7982C101.908 21.7982 102.414 21.9533 102.824 22.2636C103.233 22.5741 103.499 23.0154 103.622 23.5875L103.464 22.2547V17.2337H105.534V31.1098H103.622V29.2475C103.458 29.8985 103.175 30.4143 102.771 30.7947C102.368 31.1752 101.868 31.3654 101.271 31.3654ZM101.78 29.5578C102.072 29.5578 102.343 29.4544 102.591 29.2475C102.84 29.0405 103.038 28.7164 103.188 28.2751C103.337 27.8338 103.411 27.2816 103.411 26.6183C103.411 25.6567 103.28 24.9203 103.017 24.4091C102.753 23.8979 102.359 23.6423 101.832 23.6423C101.528 23.6423 101.243 23.7365 100.977 23.9251C100.711 24.1139 100.492 24.4274 100.319 24.8655C100.147 25.3037 100.061 25.8758 100.061 26.5818C100.061 27.2329 100.135 27.7806 100.284 28.225C100.433 28.6692 100.638 29.0024 100.898 29.2246C101.158 29.4467 101.452 29.5578 101.78 29.5578Z" fill="black"/>
<path d="M10.8056 9.45564C5.99738 9.66728 1.93625 10.7313 0.550842 12.135C0.130542 12.5579 0 12.8292 0 13.267C0 14.3464 1.38503 15.3198 3.9887 16.0595C10.1966 17.8405 20.4724 17.2822 24.2148 14.9652C26.8328 13.3503 25.4402 11.4106 20.8497 10.2782C19.0297 9.82551 17.1221 9.57618 14.6494 9.44818C12.9591 9.36533 12.7199 9.36533 10.8056 9.45564ZM16.5419 11.5614C19.3991 11.7954 21.1976 12.203 21.3719 12.671C21.4953 12.9953 20.6683 13.3503 19.1817 13.5992C17.4051 13.9012 15.8529 14.0068 12.8361 14.0068C7.8827 14.0142 4.42371 13.5313 4.15546 12.7915C3.94531 12.2253 6.42523 11.6819 10.1166 11.486C11.6322 11.4106 15.1349 11.4483 16.5419 11.5614Z" fill="#288BFF"/>
<path d="M21.3572 14.5689C20.6101 14.8493 18.8478 15.2839 17.6948 15.4673C13.293 16.1817 8.38334 15.9114 4.69194 14.7428C4.25693 14.6076 3.89435 14.5111 3.87964 14.5302C3.84342 14.5785 2.24786 30.3591 2.24786 30.6972C2.24786 31.3152 2.61761 31.5277 4.94548 32.2809C7.67215 33.1596 9.73893 33.4782 12.7995 33.4782C15.1783 33.4877 16.0268 33.4104 18.057 32.9954C19.9065 32.6185 22.7928 31.6915 23.1915 31.3534C23.5613 31.0348 23.5688 31.2856 22.6913 22.5748C22.1981 17.6976 21.8356 14.4142 21.7918 14.4237C21.756 14.4237 21.5601 14.4915 21.3572 14.5689Z" fill="#288BFF"/>
<path d="M8.11003 22.3603L8.04896 22.1369H8.07644L8.12312 22.3189H8.1253L8.17285 22.1369H8.20338L8.25093 22.3189H8.25311L8.29979 22.1369H8.32727L8.2662 22.3603H8.23828L8.18899 22.1823H8.18724L8.13795 22.3603H8.11003Z" fill="#333333"/>
<path d="M16.2159 27.2L17.5765 22.4502L16.593 19.3001H15.6586V18.9868H20.7401V19.3001H19.773L21.4631 25.7963L22.5268 19.3001V18.9868C22.5268 19.5181 21.7072 30.6964 21.7072 30.6964H20.2483L17.8223 23.2418L15.6914 30.6964H14.2653L10.1346 19.3001H9.36414V18.9868H14.6915V19.3001H13.5441L16.2159 27.2Z" fill="white"/>
<path d="M13.3265 2.1415L13.3265 2.14153L13.3249 2.13886C13.2998 2.0977 13.2754 2.05769 13.2523 2.01975C13.212 1.95374 13.1756 1.894 13.1461 1.84539C13.123 1.80713 13.1038 1.77521 13.0904 1.75224C13.0837 1.74087 13.078 1.73094 13.0738 1.72326C13.0718 1.71958 13.0695 1.71525 13.0675 1.71103C13.0666 1.70906 13.065 1.70561 13.0634 1.70147C13.0626 1.69943 13.0613 1.69588 13.0601 1.69142C13.0592 1.68847 13.0564 1.67802 13.0564 1.66437C13.0564 1.63073 13.0724 1.60672 13.0849 1.59372C13.0965 1.58161 13.1085 1.57506 13.1148 1.572C13.1274 1.56577 13.1393 1.56298 13.1451 1.56172C13.1585 1.55885 13.1735 1.55728 13.187 1.55626C13.2154 1.55411 13.254 1.55318 13.2988 1.55318C13.3888 1.55318 13.5117 1.55697 13.6466 1.56445L14.0856 1.57773L14.3002 1.28185C14.3669 1.18548 14.4341 1.09808 14.4892 1.03387C14.5166 1.0019 14.5425 0.97403 14.5647 0.953344C14.5756 0.943192 14.5877 0.932787 14.6002 0.924272C14.6064 0.920018 14.6147 0.914882 14.6245 0.910504C14.633 0.906669 14.6501 0.900012 14.6719 0.900012C14.7035 0.900012 14.7263 0.913769 14.7377 0.922365C14.7498 0.931392 14.7583 0.941377 14.7637 0.948361C14.7745 0.962447 14.7831 0.978503 14.7897 0.992368C14.8035 1.02116 14.8176 1.05905 14.8313 1.10123C14.859 1.18658 14.8889 1.30145 14.9147 1.42464C14.9147 1.42469 14.9147 1.42473 14.9147 1.42478L14.9978 1.81688L15.3752 1.96339L15.3752 1.96335L15.3779 1.96452C15.4938 2.01352 15.6013 2.05901 15.6799 2.09324C15.719 2.11029 15.7519 2.12497 15.7754 2.13607C15.7869 2.1415 15.7977 2.14684 15.8063 2.15161C15.8102 2.15377 15.8164 2.15729 15.8226 2.1617C15.8254 2.16366 15.8316 2.1682 15.8381 2.17497C15.8414 2.17835 15.8471 2.1847 15.8525 2.19379C15.8575 2.202 15.8668 2.22025 15.8668 2.24548C15.8668 2.26727 15.8597 2.28322 15.857 2.28889C15.8536 2.29615 15.8499 2.30154 15.8478 2.30448C15.8436 2.31042 15.8395 2.31487 15.8375 2.31702C15.833 2.32176 15.8284 2.32603 15.8249 2.32907C15.8175 2.3356 15.808 2.34344 15.7974 2.35189C15.7757 2.36908 15.7453 2.39225 15.7087 2.41943C15.6352 2.47394 15.5346 2.54623 15.425 2.62217L15.425 2.62217L15.4243 2.6226L15.0692 2.86454V3.27185C15.0692 3.30146 15.0694 3.32993 15.0695 3.35707C15.0699 3.44484 15.0703 3.51875 15.0658 3.57279C15.063 3.6075 15.0575 3.64684 15.0423 3.68038C15.0243 3.7198 14.9875 3.76024 14.9268 3.76588C14.8802 3.77021 14.8382 3.75104 14.8096 3.7354C14.7777 3.71793 14.7422 3.69295 14.7036 3.66349C14.6471 3.62039 14.5754 3.56099 14.487 3.48771C14.4548 3.46096 14.4203 3.43236 14.3835 3.40203L14.3835 3.40204L14.3822 3.40098C14.2555 3.293 14.2148 3.26543 14.1713 3.2585C14.1503 3.25515 14.1222 3.2561 14.0737 3.26657C14.0246 3.27716 13.9629 3.29553 13.875 3.32218C13.7408 3.365 13.6331 3.39867 13.553 3.41614C13.513 3.42487 13.474 3.4309 13.4389 3.43043C13.4051 3.42997 13.3598 3.42335 13.3224 3.39132C13.2819 3.35663 13.2706 3.30981 13.2697 3.27229C13.2689 3.23648 13.2769 3.19869 13.2872 3.16293C13.308 3.09098 13.3479 2.99525 13.3978 2.87824C13.3979 2.87817 13.3979 2.8781 13.3979 2.87803L13.5586 2.49708L13.3265 2.1415Z" fill="#288BFF" stroke="white" stroke-width="0.2"/>
<path d="M10.4694 5.24271L10.4694 5.2427L11.467 4.40697C11.467 4.40689 11.467 4.40681 11.4671 4.40673C11.5325 4.22905 11.5943 4.06622 11.6408 3.94752C11.664 3.88824 11.6836 3.83943 11.698 3.80511C11.7052 3.78814 11.7115 3.77365 11.7166 3.76289C11.719 3.75783 11.722 3.75165 11.7252 3.74592C11.7267 3.74346 11.7298 3.73804 11.7343 3.73212C11.7364 3.72939 11.7412 3.72335 11.7485 3.717L11.7487 3.71682C11.7529 3.71313 11.7747 3.69403 11.8095 3.69222L11.8095 3.69209H11.8147C11.8475 3.69209 11.8697 3.70801 11.8742 3.71116L11.8745 3.71137C11.8822 3.71684 11.8878 3.72238 11.8908 3.72544C11.8971 3.73193 11.9026 3.73884 11.9065 3.74403C11.9148 3.75505 11.9245 3.76938 11.9348 3.78526C11.9558 3.81756 11.9836 3.86309 12.0159 3.9177C12.0808 4.02722 12.1664 4.17702 12.2572 4.33941C12.3521 4.50647 12.4219 4.62748 12.4863 4.71794C12.5498 4.80722 12.6035 4.85996 12.6627 4.89445C12.722 4.92898 12.7953 4.95015 12.9066 4.96187C13.0192 4.97372 13.1624 4.97525 13.3593 4.97525C13.5039 4.97525 13.6385 4.98295 13.7384 4.99485C13.7877 5.00072 13.8318 5.00799 13.8652 5.01682C13.8812 5.02103 13.9001 5.02696 13.9171 5.03588C13.9254 5.04023 13.9385 5.04794 13.9506 5.06052C13.9629 5.07319 13.9815 5.09868 13.9815 5.13571C13.9815 5.15553 13.9761 5.17177 13.9735 5.17902C13.9702 5.18824 13.9661 5.19703 13.9623 5.20467C13.9545 5.22005 13.9443 5.23741 13.9328 5.25558C13.9096 5.29227 13.877 5.33898 13.8378 5.39218C13.7594 5.49879 13.6513 5.63604 13.5309 5.78029L13.1425 6.26111L13.2964 6.85334C13.2964 6.85343 13.2964 6.85352 13.2965 6.85361C13.3438 7.03167 13.3858 7.20055 13.4151 7.3282C13.4297 7.39192 13.4414 7.44618 13.449 7.48648C13.4527 7.50646 13.4558 7.5243 13.4576 7.53871C13.4585 7.54577 13.4593 7.55361 13.4597 7.56123C13.4597 7.56136 13.4597 7.56152 13.4597 7.56172C13.4599 7.56582 13.4608 7.58399 13.4547 7.60327L13.4556 7.60356L13.4497 7.61609C13.4315 7.65444 13.3981 7.66841 13.3824 7.67316C13.3656 7.67823 13.3502 7.67879 13.3406 7.67871C13.3206 7.67854 13.2991 7.67497 13.2796 7.67088C13.2393 7.66237 13.1865 7.64678 13.1263 7.62656C13.0051 7.58583 12.843 7.52255 12.6675 7.44655L12.0875 7.20361L11.748 7.43695L11.748 7.43696L11.7476 7.43721C11.6797 7.48342 11.6061 7.53346 11.5337 7.58257C11.381 7.68627 11.2343 7.78588 11.1609 7.83681L11.1609 7.83682L11.1595 7.83775L10.9566 7.97361L10.7873 8.08688L10.8012 7.8837L10.8521 7.137L10.8925 6.43999L10.4519 6.06494C10.3206 5.95493 10.1966 5.84679 10.1024 5.76215C10.0553 5.71983 10.0154 5.68308 9.98557 5.65475C9.97071 5.64062 9.95794 5.62819 9.94789 5.61797C9.9396 5.60954 9.9283 5.59781 9.92046 5.58699C9.90169 5.56106 9.89606 5.52942 9.90266 5.5001C9.90825 5.47529 9.92114 5.4581 9.929 5.44905C9.9446 5.43111 9.96425 5.41845 9.97785 5.41046C10.0079 5.39285 10.0493 5.37487 10.0956 5.35735C10.1899 5.32161 10.3224 5.28092 10.4694 5.24271Z" fill="#288BFF" stroke="white" stroke-width="0.2"/>
<path d="M28.1334 6.67199L28.1261 6.68099C28.1126 6.69786 28.1077 6.71487 28.106 6.72145C28.1038 6.72989 28.1028 6.73744 28.1023 6.74267C28.1012 6.75323 28.1012 6.76399 28.1015 6.77316C28.102 6.79203 28.1041 6.81556 28.1069 6.84161C28.1128 6.8943 28.1231 6.96559 28.1364 7.04832C28.163 7.21419 28.2025 7.43095 28.2448 7.64764C28.287 7.86434 28.3324 8.08202 28.3709 8.24971C28.3901 8.33339 28.4079 8.40569 28.4229 8.45955C28.4304 8.4863 28.4376 8.51001 28.4443 8.52886C28.4477 8.5382 28.4515 8.54792 28.4557 8.55689C28.4586 8.56301 28.4664 8.57953 28.4805 8.59412L28.4901 8.60405L28.4907 8.6033C28.5004 8.61003 28.5176 8.61838 28.5246 8.62071C28.5294 8.62197 28.5375 8.62357 28.5409 8.62405C28.5477 8.62489 28.5533 8.62487 28.5559 8.62483C28.5616 8.62474 28.5667 8.62424 28.5697 8.62392C28.5762 8.6232 28.5839 8.62205 28.5915 8.6208C28.6072 8.61823 28.6291 8.6142 28.656 8.60897C28.7103 8.59845 28.7884 8.58244 28.8867 8.5618C29.0836 8.52048 29.3629 8.46021 29.6971 8.3872C30.3657 8.24116 31.2547 8.04394 32.144 7.84485C33.0334 7.64576 33.9233 7.44476 34.5936 7.29116C34.9288 7.21437 35.2092 7.14938 35.4073 7.10238C35.5063 7.0789 35.5852 7.05982 35.6401 7.04597C35.6674 7.03907 35.6895 7.0333 35.7055 7.02885C35.7133 7.02666 35.7207 7.0245 35.7268 7.02247C35.7298 7.02151 35.7338 7.02013 35.738 7.01844C35.74 7.01761 35.7433 7.01622 35.7471 7.01429L35.7472 7.01425C35.7496 7.01302 35.7588 7.00841 35.7684 7.00007L35.7795 6.99037L35.7874 6.97785C35.7973 6.96212 35.8006 6.9473 35.8018 6.94157C35.8034 6.93414 35.804 6.92749 35.8043 6.92275C35.805 6.9132 35.8048 6.90342 35.8044 6.89487C35.8036 6.87734 35.8015 6.85544 35.7986 6.83086C35.7926 6.78121 35.7823 6.71359 35.7686 6.63319C35.7411 6.47211 35.6991 6.25566 35.6481 6.02059C35.5659 5.62976 35.5167 5.40488 35.4652 5.27913C35.4386 5.21435 35.4055 5.15997 35.3536 5.12467C35.3017 5.08941 35.2456 5.08346 35.2005 5.08139C35.2001 5.08137 35.1998 5.08135 35.1994 5.08134L28.1334 6.67199ZM28.1334 6.67199L28.1425 6.66487M28.1334 6.67199L28.1425 6.66487M28.1425 6.66487C28.1532 6.65643 28.1638 6.65181 28.1662 6.65079M28.1425 6.66487L28.1662 6.65079M28.1662 6.65079L28.1664 6.65069M28.1662 6.65079L28.1664 6.65069M28.1664 6.65069C28.1706 6.64886 28.1745 6.64737 28.1776 6.64629M28.1664 6.65069L28.1776 6.64629M28.1776 6.64629C28.1837 6.64408 28.1909 6.64183 28.1982 6.63963M28.1776 6.64629L28.1982 6.63963M28.1982 6.63963C28.213 6.63516 28.2331 6.62957 28.2577 6.62302M28.1982 6.63963L28.2577 6.62302M28.2577 6.62302C28.3071 6.60987 28.3775 6.59202 28.4663 6.57009M28.2577 6.62302L28.4663 6.57009M28.4663 6.57009C28.6442 6.52618 28.8977 6.46545 29.2083 6.39229M28.4663 6.57009L29.2083 6.39229M29.2083 6.39229C29.8297 6.24595 30.6803 6.04966 31.6124 5.83837L29.2083 6.39229Z" fill="#288BFF" stroke="white" stroke-width="0.2"/>
<path d="M20.2052 8.38935L20.2053 8.38935C22.1416 7.95527 23.9165 7.55898 25.2174 7.27027C25.8679 7.12591 26.3999 7.00844 26.7744 6.92657C26.9616 6.88565 27.1096 6.85359 27.2134 6.83152C27.2652 6.82049 27.3063 6.8119 27.3358 6.80593C27.3615 6.80073 27.3858 6.79589 27.3977 6.79479L27.3977 6.79473L27.4012 6.79453C27.4495 6.79177 27.5054 6.79934 27.556 6.84296C27.6 6.8809 27.6292 6.93742 27.6537 7.00256C27.7032 7.13394 27.7556 7.36368 27.8383 7.74899L27.8384 7.74971C27.8892 7.99533 27.9346 8.2204 27.9664 8.38517C27.9823 8.46746 27.9949 8.53526 28.0031 8.58324C28.0072 8.60704 28.0103 8.62701 28.0123 8.64179C28.0132 8.64888 28.0141 8.65664 28.0146 8.6637C28.0148 8.66688 28.015 8.67277 28.0147 8.67954C28.0145 8.68274 28.014 8.68923 28.0122 8.69709L28.0122 8.6974C28.0114 8.70097 28.0081 8.71566 27.9973 8.73165C27.9973 8.73173 27.9972 8.7318 27.9972 8.73188C27.9971 8.73199 27.997 8.7321 27.997 8.73221C27.994 8.73647 27.9906 8.74082 27.9865 8.74507L27.9863 8.74483C27.9835 8.74787 27.9809 8.75051 27.9791 8.75205C27.9712 8.75881 27.964 8.76276 27.9615 8.76411C27.9555 8.76732 27.9504 8.76926 27.9489 8.76984C27.9448 8.77141 27.9409 8.77258 27.9389 8.7732C27.9342 8.77463 27.9284 8.77621 27.9223 8.77781C27.9098 8.78111 27.8918 8.7856 27.869 8.79114C27.8233 8.80227 27.7562 8.81815 27.6703 8.8382C27.4983 8.87833 27.25 8.93543 26.9439 9.00524C26.3319 9.14486 25.4887 9.33541 24.5641 9.54294L24.564 9.54296C23.1862 9.85095 21.0737 10.3252 19.2369 10.7376C18.5986 10.8809 17.9936 11.0167 17.4643 11.1355L17.464 11.1356C16.4413 11.3619 15.4965 11.5695 14.7982 11.7205C14.4491 11.7959 14.1614 11.8573 13.9564 11.8999C13.8539 11.9211 13.7717 11.9377 13.7126 11.9491C13.6832 11.9547 13.6589 11.9592 13.6406 11.9623C13.6264 11.9646 13.6061 11.968 13.5914 11.968C13.5332 11.968 13.4839 11.9424 13.4454 11.8973C13.4113 11.8575 13.3851 11.802 13.3613 11.7356C13.3132 11.6015 13.2612 11.3813 13.189 11.0356L13.189 11.0356L13.1889 11.0352C13.1416 10.8041 13.1014 10.5855 13.0757 10.4203C13.0629 10.3379 13.0534 10.2674 13.0486 10.2146C13.0463 10.1885 13.0448 10.1645 13.045 10.1447C13.0451 10.135 13.0455 10.1238 13.0472 10.1126L13.0472 10.1124C13.0482 10.1054 13.0518 10.0812 13.0682 10.0586L13.0674 10.058L13.0771 10.0479C13.086 10.0387 13.0946 10.0333 13.0976 10.0315C13.1017 10.029 13.1052 10.0272 13.1073 10.0262C13.1115 10.0242 13.1153 10.0228 13.1175 10.0219C13.1221 10.0202 13.1269 10.0187 13.131 10.0174C13.1395 10.0148 13.1507 10.0116 13.1638 10.0081C13.1903 10.001 13.2283 9.99124 13.2769 9.97914C13.3744 9.95491 13.5163 9.92066 13.6977 9.87758C14.0606 9.7914 14.5825 9.66962 15.2244 9.52148C16.5082 9.22518 18.2724 8.82326 20.2052 8.38935ZM27.7405 7.76996C27.5737 6.99252 27.5375 6.8869 27.4069 6.89436L27.9144 8.67579C27.9216 8.66833 27.842 8.26076 27.7405 7.76996Z" fill="#288BFF" stroke="white" stroke-width="0.2"/>
</svg>
